<svg width="400" height="400" viewBox="0 0 400 400" fill="none" xmlns="http://www.w3.org/2000/svg">
<path fill-rule="evenodd" clip-rule="evenodd" d="M216.285 36H344L343.949 108.986H325.315L325.418 310.635L272.288 364L200.526 363.743L128.711 364L75.5823 310.635L75.685 108.986H57.0513L57 36H184.715V108.78H165.158V278.174L178.504 291.528H222.496L235.842 278.174V108.78H216.285V36ZM221.931 103.182H241.489V280.536L224.857 297.229H176.143L159.511 280.536V103.182H179.069V41.6499H62.6466L62.6978 103.336H81.3316L81.2289 308.323L131.073 358.35L198.934 358.145V358.093H202.066V358.145L269.927 358.35L319.771 308.323L319.668 103.336H338.302L338.353 41.6499H221.931V103.182Z" fill="#BB00FF"/>
<path d="M253.604 287.83L231.992 308.529H167.622L147.91 288.549V90.7523H167.622V54.3364H75.3769V90.7523H93.6514V303.238L136.411 346.023H264.691L306.938 303.238V90.7523H326.65V54.3364H231.992V90.7523H252.68L253.604 287.83Z" fill="#BB00FF"/>
</svg>
