<svg width="794" height="328" viewBox="0 0 794 328" fill="none" xmlns="http://www.w3.org/2000/svg">
<path fill-rule="evenodd" clip-rule="evenodd" d="M93.2 91H150.2V123.5H141.9V213.6L118.2 237.4L86.1 237.3L54.1 237.4L30.3 213.6V123.5H22V91H79.1V123.5H70.3V199.1L76.3 205.1H96L101.9 199.1V123.5H93.2V91ZM95.7 121H104.4V200.2L97 207.6H75.2L67.8 200.2V121H76.5V93.5H24.5V121H32.9L32.8 212.6L55.1 234.9L85.4 234.8H86.8L117.1 234.9L139.4 212.6V121H147.7V93.5H95.7V121Z" fill="white"/>
<path fill-rule="evenodd" clip-rule="evenodd" d="M243.9 91.4H301.1V123.5H291.9V204.5H301.1V236.9H253.4L212.9 171.2V204.5H222.3L221.7 236.9H164.6V204.5H173.6V123.5H164.6V91.4H212.3L252.9 159.6V123.5H243.9V91.4ZM246.4 121.1H255.4V168.8L210.9 94H167.2V121.1H176.2V207.1H167.2V234.4H219.2L219.7 207.1H210.4V162.3L254.8 234.4H298.6V207.1H289.4V121.1H298.6V94H246.4V121.1Z" fill="white"/>
<path fill-rule="evenodd" clip-rule="evenodd" d="M312.1 91.4H369.4V123.5H359.9V204.5H369.4V236.9H312.1V204.5H321.4V123.5H312.1V91.4ZM314.6 121.1H323.9V207.1H314.6V234.4H366.9V207.1H357.4V121.1H366.9V94H314.6V121.1Z" fill="white"/>
<path d="M403 226H411.4V96.1H403V226Z" fill="white"/>
<path d="M109.9 203.4L100.2 212.7H71.4L62.6 203.8V115.4H71.4V99.2H30.2V115.4H38.4V210.3L57.5 229.4H114.8L133.7 210.3V115.4H142.5V99.2H100.2V115.4H109.4L109.9 203.4Z" fill="white"/>
<path d="M260.2 189.2L205.4 99.2H171.7V115.4H181.1V212.7H171.7V229.4H214V212.7H205.4V141.1L258 229.4H294.1V212.7H283.8V115.4H294.1V99.2H251.3V115.4H260.2V189.2Z" fill="white"/>
<path d="M328.8 212.7H320V229.4H361V212.7H352.9V115.4H361V99.2H320V115.4H328.8V212.7Z" fill="white"/>
<path d="M478.8 135.2H457.7V142.8H463.8V185.4L460 189.2H449.6L445.5 185.1V177.1H434.8L434.7 188.3L443.9 197.5H465.6L474.9 188.2V142.8H478.8V135.2Z" fill="white"/>
<path fill-rule="evenodd" clip-rule="evenodd" d="M577.9 135.1L585.8 143V188.6L576.8 197.7H539.9V188.6H544.2V142.8H539.9V135.1H577.9ZM575.4 147.1L571 142.8H555.6V188.6H570.7L575.4 183.9V147.1Z" fill="white"/>
<path d="M602.9 135.1L594.1 142.8V162.1L602.9 170H623.7L628.1 173.5V184.6L623.9 188.6H609.2L605.1 184.6V180.7L594.1 180.3V188.6L602.9 197.7H630.4L639 188.6V170L630.4 162.1H609.6L605.1 157V146L608.2 142.8H624.6L628.1 146.4V152.1L639 152V142.8L630.4 135.1H602.9Z" fill="white"/>
<path d="M679.1 166.8L659.8 135.1H644.1V143.1H648.2V189.6H644.1V197.7H664V189.6H659.8V154.6L679.2 185.9L698.2 154.3V189.6H694.2V197.7H714.2V189.6H710V143.1H714.2V135.1H698.2L679.1 166.8Z" fill="white"/>
<path fill-rule="evenodd" clip-rule="evenodd" d="M772.4 189.6V197.7H753.6V189.6H757.3C756.033 186.133 754.8 182.667 753.6 179.2H734.8C733.533 182.667 732.267 186.133 731 189.6H734.8V197.7H715.4V189.6H718.1L734.8 143.1H729.5V135.1H759.6V143.1H753.6L769.8 189.6H772.4ZM752.4 173.4L743.9 150.1L736.6 173.4H752.4Z" fill="white"/>
<path fill-rule="evenodd" clip-rule="evenodd" d="M533.3 189.6H535.8V197.7H517.1V189.6H520.7C519.5 186.133 518.3 182.667 517.1 179.2H498.3C497.033 182.667 495.767 186.133 494.5 189.6H498.3V197.7H478.8V189.6H481.5L498.3 143.1H492.9V135.1H523.1V143.1H517.1L533.3 189.6ZM515.8 173.4L507.3 150.1L500 173.4H515.8Z" fill="white"/>
</svg>
